<svg width="300" height="300" viewBox="0 0 300 300" xmlns="http://www.w3.org/2000/svg">
  <rect width="300" height="300" fill="white"/>

  <rect x="20" y="20" width="90" height="90" fill="black"/>
  <rect x="38" y="38" width="54" height="54" fill="white"/>
  <rect x="56" y="56" width="22" height="22" fill="black"/>

  <rect x="190" y="20" width="90" height="90" fill="black"/>
  <rect x="208" y="38" width="54" height="54" fill="white"/>
  <rect x="226" y="56" width="22" height="22" fill="black"/>

  <rect x="20" y="190" width="90" height="90" fill="black"/>
  <rect x="38" y="208" width="54" height="54" fill="white"/>
  <rect x="56" y="226" width="22" height="22" fill="black"/>

  <rect x="125" y="30" width="16" height="16" fill="black"/>
  <rect x="155" y="30" width="32" height="16" fill="black"/>
  <rect x="205" y="125" width="16" height="32" fill="black"/>
  <rect x="125" y="75" width="48" height="16" fill="black"/>
  <rect x="175" y="90" width="32" height="16" fill="black"/>

  <rect x="125" y="125" width="32" height="32" fill="black"/>
  <rect x="165" y="125" width="16" height="48" fill="black"/>
  <rect x="195" y="125" width="48" height="16" fill="black"/>
  <rect x="250" y="125" width="24" height="24" fill="black"/>

  <rect x="125" y="175" width="16" height="48" fill="black"/>
  <rect x="150" y="190" width="48" height="16" fill="black"/>
  <rect x="205" y="175" width="16" height="48" fill="black"/>
  <rect x="230" y="190" width="48" height="16" fill="black"/>
  <rect x="265" y="165" width="16" height="48" fill="black"/>

  <rect x="125" y="235" width="32" height="16" fill="black"/>
  <rect x="165" y="220" width="16" height="48" fill="black"/>
  <rect x="195" y="235" width="48" height="16" fill="black"/>
  <rect x="250" y="220" width="16" height="48" fill="black"/>
  <rect x="270" y="235" width="16" height="16" fill="black"/>

  <text x="150" y="295" text-anchor="middle" font-size="14" font-weight="bold" font-family="Arial">
    SIGAUCP - QR
  </text>
</svg>